<svg fill="#000000" xmlns="http://www.w3.org/2000/svg"  viewBox="0 0 16 16" width="32px" height="32px"><path d="M 4 1 L 4.9863281 4.2929688 L 4.9863281 6 L 5.8417969 6 L 5.8417969 4.2929688 L 6.8398438 1 L 5.9785156 1 L 5.6210938 2.6210938 C 5.5200938 3.0940938 5.4547812 3.4318125 5.4257812 3.6328125 L 5.4003906 3.6328125 C 5.3583906 3.3528125 5.2930781 3.0122344 5.2050781 2.6152344 L 4.8613281 1 L 4 1 z M 7.8359375 2.34375 C 7.5459375 2.34375 7.3127656 2.4025781 7.1347656 2.5175781 C 6.9567656 2.6315781 6.8242344 2.8154063 6.7402344 3.0664062 C 6.6572344 3.3184063 6.6152344 3.6494531 6.6152344 4.0644531 L 6.6152344 4.3535156 C 6.6152344 4.7635156 6.6535625 5.0928438 6.7265625 5.3398438 C 6.7995625 5.5878437 6.9236562 5.7697188 7.0976562 5.8867188 C 7.2716563 6.0037188 7.5114063 6.0625 7.8164062 6.0625 C 8.1134063 6.0625 8.3494375 6.006625 8.5234375 5.890625 C 8.6964375 5.775625 8.8214375 5.59375 8.8984375 5.34375 C 8.9754375 5.09475 9.015625 4.7645156 9.015625 4.3535156 L 9.015625 4.0644531 C 9.015625 3.6504531 8.9754844 3.3193125 8.8964844 3.0703125 C 8.8174844 2.8213125 8.6905313 2.6375312 8.5195312 2.5195312 C 8.3475312 2.4025313 8.1209375 2.34375 7.8359375 2.34375 z M 9.4667969 2.4199219 L 9.4667969 5.0253906 C 9.4667969 5.3813906 9.5274375 5.6445 9.6484375 5.8125 C 9.7694375 5.9795 9.9578906 6.0625 10.212891 6.0625 C 10.580891 6.0625 10.858969 5.8852969 11.042969 5.5292969 L 11.060547 5.5292969 L 11.136719 6 L 11.814453 6 L 11.814453 2.4199219 L 10.949219 2.4199219 L 10.949219 5.2070312 C 10.916219 5.2780313 10.865875 5.3387656 10.796875 5.3847656 C 10.726875 5.4307656 10.653125 5.453125 10.578125 5.453125 C 10.490125 5.453125 10.428625 5.41675 10.390625 5.34375 C 10.352625 5.27075 10.332031 5.1485625 10.332031 4.9765625 L 10.332031 2.4199219 L 9.4667969 2.4199219 z M 7.8164062 2.9414062 C 7.9374063 2.9414063 8.0223125 3.0048125 8.0703125 3.1328125 C 8.1183125 3.2598125 8.1425781 3.4612812 8.1425781 3.7382812 L 8.1425781 4.6699219 C 8.1425781 4.9539219 8.1183125 5.1582031 8.0703125 5.2832031 C 8.0223125 5.4092031 7.9374062 5.4716563 7.8164062 5.4726562 C 7.6954063 5.4726562 7.6104531 5.4082031 7.5644531 5.2832031 C 7.5184531 5.1582031 7.4960938 4.9549219 7.4960938 4.6699219 L 7.4960938 3.7382812 C 7.4960938 3.4622813 7.5203594 3.2608125 7.5683594 3.1328125 C 7.6163594 3.0058125 7.6994063 2.9414062 7.8164062 2.9414062 z M 3.3320312 7 C 2.5990312 7 2 7.5999844 2 8.3339844 L 2 12.666016 C 2 13.400016 2.5990312 14 3.3320312 14 L 12.666016 14 C 13.400016 14 14 13.400016 14 12.666016 L 14 8.3339844 C 14 7.5999844 13.400969 7 12.667969 7 L 3.3320312 7 z M 8.03125 8 L 8.7363281 8 L 8.7363281 9.7128906 L 8.7421875 9.7128906 C 8.8061875 9.5898906 8.8976719 9.4900625 9.0136719 9.4140625 C 9.1306719 9.3380625 9.255625 9.3007812 9.390625 9.3007812 C 9.563625 9.3007812 9.6998281 9.3455 9.7988281 9.4375 C 9.8978281 9.5295 9.9696719 9.6797656 10.013672 9.8847656 C 10.057672 10.089766 10.078125 10.374281 10.078125 10.738281 L 10.078125 11.253906 C 10.078125 11.738906 10.020297 12.094266 9.9042969 12.322266 C 9.7872969 12.550266 9.6044219 12.664063 9.3574219 12.664062 C 9.2194219 12.664062 9.0944688 12.631359 8.9804688 12.568359 C 8.8674688 12.505359 8.7835625 12.418594 8.7265625 12.308594 L 8.7109375 12.308594 L 8.6367188 12.615234 L 8.03125 12.615234 L 8.03125 8 z M 3.65625 8.1640625 L 5.8261719 8.1640625 L 5.8261719 8.7539062 L 5.0996094 8.7539062 L 5.0996094 12.615234 L 4.3847656 12.615234 L 4.3847656 8.7539062 L 3.65625 8.7539062 L 3.65625 8.1640625 z M 11.396484 9.3046875 C 11.647484 9.3046875 11.839609 9.3513594 11.974609 9.4433594 C 12.108609 9.5353594 12.204766 9.6780469 12.259766 9.8730469 C 12.314766 10.068047 12.341797 10.337688 12.341797 10.679688 L 12.34375 11.234375 L 11.117188 11.234375 L 11.117188 11.398438 C 11.117188 11.607437 11.123719 11.764141 11.136719 11.869141 C 11.149719 11.973141 11.175844 12.050656 11.214844 12.097656 C 11.253844 12.145656 11.313531 12.167969 11.394531 12.167969 C 11.503531 12.167969 11.579141 12.125016 11.619141 12.041016 C 11.660141 11.956016 11.682547 11.815188 11.685547 11.617188 L 12.316406 11.654297 C 12.319406 11.682297 12.320312 11.721484 12.320312 11.771484 C 12.320312 12.072484 12.239219 12.297312 12.074219 12.445312 C 11.909219 12.594312 11.676953 12.667969 11.376953 12.667969 C 11.015953 12.667969 10.763188 12.554125 10.617188 12.328125 C 10.472188 12.102125 10.400391 11.753297 10.400391 11.279297 L 10.400391 10.710938 C 10.400391 10.222938 10.476953 9.8675781 10.626953 9.6425781 C 10.776953 9.4175781 11.032484 9.3046875 11.396484 9.3046875 z M 6.859375 9.3632812 L 7.5917969 9.3632812 L 7.5917969 12.615234 L 7.0195312 12.615234 L 6.9550781 12.21875 L 6.9394531 12.21875 C 6.7834531 12.51975 6.5502812 12.669922 6.2382812 12.669922 C 6.0222812 12.669922 5.8637187 12.598031 5.7617188 12.457031 C 5.6587188 12.316031 5.6074219 12.094922 5.6074219 11.794922 L 5.6074219 9.3652344 L 6.3398438 9.3652344 L 6.3398438 11.753906 C 6.3398438 11.898906 6.3566719 12.0015 6.3886719 12.0625 C 6.4206719 12.1245 6.472875 12.15625 6.546875 12.15625 C 6.609875 12.15625 6.6724688 12.137656 6.7304688 12.097656 C 6.7894688 12.058656 6.830375 12.007266 6.859375 11.947266 L 6.859375 9.3632812 z M 11.382812 9.9609375 C 11.304813 9.9609375 11.246984 9.9832969 11.208984 10.029297 C 11.171984 10.075297 11.146766 10.151859 11.134766 10.255859 C 11.121766 10.359859 11.115234 10.518469 11.115234 10.730469 L 11.115234 10.962891 L 11.650391 10.962891 L 11.650391 10.730469 C 11.650391 10.521469 11.644859 10.363859 11.630859 10.255859 C 11.618859 10.147859 11.592688 10.071344 11.554688 10.027344 C 11.517687 9.9833437 11.460812 9.9609375 11.382812 9.9609375 z M 9.0605469 9.9863281 C 8.9895469 9.9863281 8.9252344 10.013313 8.8652344 10.070312 C 8.8052344 10.127313 8.7622812 10.199109 8.7382812 10.287109 L 8.7382812 12.134766 C 8.7702813 12.191766 8.8112813 12.233719 8.8632812 12.261719 C 8.9142813 12.289719 8.9692969 12.304688 9.0292969 12.304688 C 9.1072969 12.304688 9.1688437 12.27575 9.2148438 12.21875 C 9.2608437 12.16175 9.2935 12.066641 9.3125 11.931641 C 9.3315 11.797641 9.3417969 11.612 9.3417969 11.375 L 9.3417969 10.955078 C 9.3417969 10.700078 9.3343594 10.505187 9.3183594 10.367188 C 9.3033594 10.229188 9.274375 10.130266 9.234375 10.072266 C 9.193375 10.014266 9.1355469 9.9863281 9.0605469 9.9863281 z"/></svg>